<?xml version="1.0" encoding="UTF-8" standalone="no"?>
<svg
   version="1.0"
   width="1024.000000pt"
   height="1024.000000pt"
   viewBox="0 0 1024.000000 1024.000000"
   preserveAspectRatio="xMidYMid meet"
   id="svg27"
   sodipodi:docname="Designer.svg"
   inkscape:version="1.3.2 (091e20e, 2023-11-25, custom)"
   xmlns:inkscape="http://www.inkscape.org/namespaces/inkscape"
   xmlns:sodipodi="http://sodipodi.sourceforge.net/DTD/sodipodi-0.dtd"
   xmlns="http://www.w3.org/2000/svg"
   xmlns:svg="http://www.w3.org/2000/svg">
  <defs
     id="defs27" />
  <sodipodi:namedview
     id="namedview27"
     pagecolor="#ffffff"
     bordercolor="#666666"
     borderopacity="1.0"
     inkscape:showpageshadow="2"
     inkscape:pageopacity="0.0"
     inkscape:pagecheckerboard="true"
     inkscape:deskcolor="#d1d1d1"
     inkscape:document-units="pt"
     inkscape:zoom="0.86499023"
     inkscape:cx="682.66667"
     inkscape:cy="682.66667"
     inkscape:window-width="2560"
     inkscape:window-height="1377"
     inkscape:window-x="-8"
     inkscape:window-y="-8"
     inkscape:window-maximized="1"
     inkscape:current-layer="svg27" />
  <g
     transform="translate(0.000000,1024.000000) scale(0.100000,-0.100000)"
     fill="#000000"
     stroke="none"
     id="g27">
    <path
       d="M4880 9369 c-610 -52 -1224 -244 -1785 -558 -491 -275 -987 -721 -1353 -1216 -643 -872 -932 -1988 -796 -3075 101 -810 434 -1581 945 -2186 438 -520 899 -874 1504 -1156 482 -225 921 -344 1455 -394 492 -46 1089 31 1605 206 1091 372 1980 1130 2490 2125 235 460 378 961 447 1570 16 145 16 598 0 745 -42 374 -100 650 -198 954 -208 640 -554 1207 -1035 1697 -365 370 -733 637 -1194 864 -493 242 -983 381 -1500 425 -138 11 -446 11 -585 -1z m511 -349 c497 -39 942 -164 1399 -395 828 -420 1457 -1048 1850 -1850 453 -924 524 -1985 200 -2965 -220 -665 -619 -1254 -1165 -1717 -273 -232 -535 -403 -881 -576 -444 -222 -897 -350 -1378 -387 -626 -49 -1298 91 -1907 395 -546 274 -961 595 -1310 1015 -529 635 -801 1276 -905 2130 -26 218 -25 594 4 806 59 436 154 793 302 1140 247 579 684 1146 1200 1560 344 277 819 530 1260 672 436 141 919 203 1331 172z"
       id="path1" />
    <path
       d="M4968 8620 c-366 -33 -734 -157 -1030 -346 -184 -118 -423 -334 -564 -509 -189 -237 -345 -545 -408 -805 -39 -161 -48 -267 -44 -474 8 -305 56 -502 192 -781 99 -203 228 -384 415 -585 l69 -75 -88 -85 c-175 -169 -317 -365 -426 -585 -263 -535 -269 -1114 -15 -1640 289 -600 863 -1049 1533 -1199 184 -41 330 -56 551 -56 494 1 921 128 1332 398 422 277 738 693 871 1149 60 204 68 262 68 513 1 208 -2 248 -22 350 -81 399 -270 744 -586 1067 l-100 103 87 87 c264 269 454 603 541 952 44 177 51 237 50 451 0 182 -3 219 -27 330 -38 180 -78 295 -162 466 -134 272 -341 539 -564 726 -279 234 -624 412 -961 493 -222 53 -497 74 -712 55z m394 -355 c491 -65 940 -313 1260 -694 180 -216 300 -444 362 -688 39 -154 49 -251 43 -407 -10 -226 -57 -406 -159 -611 -109 -218 -233 -380 -434 -566 -131 -123 -385 -314 -404 -307 -23 9 -211 200 -204 207 5 4 63 45 129 91 264 183 413 324 531 501 179 269 267 604 235 890 -42 367 -209 683 -492 927 -339 295 -781 448 -1189 412 -705 -61 -1283 -548 -1426 -1200 -25 -118 -30 -347 -9 -471 45 -274 196 -585 409 -847 37 -46 66 -85 64 -86 -50 -39 -185 -126 -194 -126 -7 0 -51 42 -99 93 -257 272 -420 576 -480 897 -25 131 -25 371 -1 500 118 618 620 1180 1245 1395 269 93 554 124 813 90z m-16 -610 c359 -63 701 -301 886 -618 159 -273 170 -615 28 -912 -110 -229 -288 -404 -624 -611 l-99 -62 -123 102 c-68 55 -123 104 -123 108 -1 4 50 38 112 76 319 199 450 325 543 528 48 103 67 191 67 314 -1 222 -77 412 -229 567 -107 108 -254 192 -404 229 -59 15 -110 19 -240 18 -150 0 -173 -3 -255 -28 -280 -85 -492 -304 -566 -582 -28 -108 -31 -298 -5 -404 41 -166 135 -339 283 -523 141 -176 324 -353 680 -658 210 -180 525 -491 645 -639 167 -206 302 -421 371 -595 126 -315 112 -649 -38 -922 -224 -407 -722 -665 -1203 -623 -197 18 -398 80 -555 173 -387 230 -588 597 -556 1018 9 125 31 202 90 324 109 227 293 413 624 633 61 40 120 75 132 78 17 5 47 -16 142 -98 66 -56 120 -105 120 -108 1 -3 -60 -42 -134 -88 -442 -272 -603 -480 -622 -807 -23 -403 244 -746 653 -841 103 -24 308 -24 412 -1 431 99 711 485 663 915 -15 140 -36 213 -96 339 -128 270 -284 445 -805 907 -585 520 -880 862 -1051 1221 -180 378 -145 754 102 1085 64 86 177 200 264 265 81 61 251 147 354 179 174 55 386 70 557 41z m-66 -621 c212 -48 360 -235 360 -455 0 -164 -70 -290 -225 -404 -104 -76 -393 -248 -408 -242 -7 3 -45 42 -84 88 -246 291 -315 547 -208 765 101 205 324 303 565 248z m-864 -2010 c57 -53 104 -100 104 -103 0 -4 -53 -43 -117 -87 -549 -370 -806 -756 -829 -1249 -34 -714 468 -1319 1231 -1485 625 -135 1321 128 1684 636 112 157 187 331 232 535 31 138 33 366 5 514 -51 275 -201 587 -402 837 l-54 67 38 29 c20 16 59 43 86 62 l48 32 70 -68 c559 -548 702 -1250 384 -1882 -233 -463 -720 -845 -1253 -983 -312 -80 -678 -78 -1001 7 -329 87 -630 262 -877 509 -393 394 -568 865 -500 1344 71 498 381 936 920 1300 66 44 122 81 124 81 2 0 50 -43 107 -96z m989 -935 c185 -212 251 -371 243 -584 -5 -130 -26 -194 -93 -283 -179 -238 -558 -257 -762 -39 -71 76 -109 153 -124 248 -28 182 55 352 239 487 96 71 396 252 417 252 5 0 42 -36 80 -81z"
       id="path2" />
    <path
       d="M2915 7931 c-17 -4 -35 -17 -45 -34 -13 -24 -13 -30 0 -54 15 -27 18 -28 116 -31 109 -3 128 4 139 50 5 21 1 33 -19 52 -22 23 -33 26 -93 25 -37 -1 -81 -4 -98 -8z"
       id="path3" />
    <path
       d="M7230 7933 c-49 -18 -66 -75 -32 -106 15 -13 39 -17 111 -17 110 0 131 9 131 53 0 43 -10 56 -51 67 -36 11 -134 12 -159 3z"
       id="path4" />
    <path
       d="M2465 7385 c-14 -13 -25 -33 -25 -45 0 -11 11 -32 25 -45 23 -24 29 -25 165 -25 136 0 142 1 165 25 14 13 25 34 25 45 0 12 -11 32 -25 45 -23 24 -29 25 -165 25 -136 0 -142 -1 -165 -25z"
       id="path5" />
    <path
       d="M7510 7390 c-11 -11 -20 -33 -20 -50 0 -17 9 -39 20 -50 18 -18 33 -20 170 -20 137 0 152 2 170 20 11 11 20 32 20 48 0 62 -29 72 -199 72 -128 0 -143 -2 -161 -20z"
       id="path6" />
    <path
       d="M2122 6914 c-28 -19 -30 -74 -4 -97 16 -15 49 -17 259 -17 220 0 241 2 256 18 23 25 21 68 -3 92 -19 19 -33 20 -253 20 -194 0 -236 -3 -255 -16z"
       id="path7" />
    <path
       d="M7680 6910 c-24 -24 -26 -57 -4 -88 15 -22 18 -22 263 -22 227 0 249 2 264 18 23 25 21 68 -3 92 -19 19 -33 20 -260 20 -227 0 -241 -1 -260 -20z"
       id="path8" />
    <path
       d="M1890 6430 c-27 -27 -25 -66 5 -95 22 -23 32 -25 115 -25 83 0 93 2 115 25 30 29 32 68 5 95 -17 17 -33 20 -120 20 -87 0 -103 -3 -120 -20z"
       id="path9" />
    <path
       d="M2402 6434 c-29 -20 -30 -76 -2 -104 17 -17 33 -20 104 -20 98 0 136 20 136 71 0 54 -28 69 -128 69 -63 0 -94 -4 -110 -16z"
       id="path10" />
    <path
       d="M7692 6434 c-29 -20 -30 -76 -2 -104 19 -19 33 -20 365 -20 332 0 346 1 365 20 27 27 26 74 -2 100 -21 19 -33 20 -363 20 -292 0 -344 -2 -363 -16z"
       id="path11" />
    <path
       d="M1680 5950 c-30 -30 -27 -83 6 -109 26 -21 36 -21 505 -21 l478 0 25 23 c36 32 39 74 6 107 -19 19 -33 20 -510 20 -477 0 -491 -1 -510 -20z"
       id="path12" />
    <path
       d="M7610 5950 c-30 -30 -27 -83 6 -109 26 -21 36 -21 506 -21 l479 0 24 25 c14 13 25 36 25 50 0 14 -11 37 -25 50 l-24 25 -486 0 c-472 0 -486 -1 -505 -20z"
       id="path13" />
    <path
       d="M1525 5286 c-43 -19 -82 -68 -90 -115 -9 -52 21 -119 66 -152 l34 -24 830 -3 c723 -2 835 -1 870 13 52 19 70 48 55 85 -17 41 -73 66 -243 110 -304 77 -561 100 -1121 100 -286 -1 -378 -4 -401 -14z"
       id="path14" />
    <path
       d="M7850 5289 c-178 -11 -376 -42 -550 -84 -152 -38 -229 -66 -255 -95 -24 -26 -15 -69 18 -94 28 -21 33 -21 850 -24 914 -3 876 -6 937 64 59 68 33 185 -50 226 -32 16 -72 18 -425 17 -214 -1 -451 -6 -525 -10z"
       id="path15" />
    <path
       d="M1512 4616 c-35 -32 -37 -38 -37 -93 0 -44 5 -66 22 -89 47 -66 26 -64 707 -64 l617 0 19 46 c17 38 47 88 128 212 l14 22 -716 0 -716 0 -38 -34z"
       id="path16" />
    <path
       d="M7372 4603 c17 -26 55 -88 83 -138 l51 -90 595 -3 c401 -2 606 1 631 8 116 33 153 172 67 244 l-31 26 -714 0 -715 0 33 -47z"
       id="path17" />
    <path
       d="M1684 4030 c-61 -25 -86 -130 -45 -196 39 -64 40 -64 550 -64 434 0 461 1 461 18 0 9 13 70 29 135 l28 117 -501 -1 c-275 0 -511 -4 -522 -9z"
       id="path18" />
    <path
       d="M7615 4023 c11 -30 55 -217 55 -235 0 -17 28 -18 455 -18 493 0 495 0 545 55 21 22 25 37 25 86 0 53 -3 62 -33 91 l-32 33 -511 3 c-486 2 -511 2 -504 -15z"
       id="path19" />
    <path
       d="M1824 3438 c10 -49 50 -120 80 -143 26 -19 46 -20 393 -25 200 -3 366 -4 367 -2 2 1 0 22 -4 45 -4 23 -11 68 -15 100 l-6 57 -411 0 -410 0 6 -32z"
       id="path20" />
    <path
       d="M7676 3458 c-6 -19 -23 -182 -20 -188 1 -3 164 -3 362 0 343 5 362 6 389 25 26 19 92 135 93 163 0 9 -89 12 -410 12 -320 0 -411 -3 -414 -12z"
       id="path21" />
    <path
       d="M2078 3015 c-8 -8 9 -81 27 -115 20 -38 69 -77 113 -90 24 -7 134 -10 303 -8 l267 3 -43 105 -43 105 -309 3 c-170 1 -312 0 -315 -3z"
       id="path22" />
    <path
       d="M7606 3008 c-2 -7 -19 -56 -38 -108 l-35 -95 261 -3 c273 -3 314 1 370 41 32 23 76 108 76 150 l0 27 -315 0 c-244 0 -316 -3 -319 -12z"
       id="path23" />
    <path
       d="M2476 2544 c-20 -53 17 -129 78 -158 30 -14 66 -16 245 -14 l210 3 -61 93 -61 92 -203 0 c-175 0 -203 -2 -208 -16z"
       id="path24" />
    <path
       d="M7392 2502 c-20 -31 -49 -73 -64 -93 -16 -20 -28 -39 -28 -43 0 -4 98 -4 217 -1 235 7 250 10 297 65 33 39 42 74 27 106 l-11 24 -200 0 -200 0 -38 -58z"
       id="path25" />
    <path
       d="M2952 2090 c-6 -11 -12 -28 -12 -39 0 -59 40 -81 150 -81 110 0 140 16 140 76 0 55 -22 64 -151 64 -103 0 -115 -2 -127 -20z"
       id="path26" />
    <path
       d="M7092 2087 c-29 -31 -28 -62 3 -93 25 -25 30 -26 131 -22 102 3 107 4 130 31 30 35 31 71 2 91 -17 12 -49 16 -133 16 -104 0 -113 -2 -133 -23z"
       id="path27" />
  </g>
</svg>
